<svg width="124" height="124" viewBox="0 0 124 124" fill="none" xmlns="http://www.w3.org/2000/svg">
<path fill-rule="evenodd" clip-rule="evenodd" d="M111.145 13.1448H13.145V111.145H111.145V13.1448ZM12.145 12.1448V112.145H112.145V12.1448H12.145Z" fill="#950101"/>
<path fill-rule="evenodd" clip-rule="evenodd" d="M122.586 62.0001L62 1.41421L1.4141 62.0001L62 122.586L122.586 62.0001ZM62 0L-0.000108977 62.0001L62 124L124 62.0001L62 0Z" fill="#950101"/>
<path fill-rule="evenodd" clip-rule="evenodd" d="M103.145 21.1448H21.1448V103.145H103.145V21.1448ZM20.1448 20.1448V104.145H104.145V20.1448H20.1448Z" fill="#B10000"/>
<path d="M29.9722 54.1448V28.3848H39.2822C43.7155 28.3848 45.9322 30.5898 45.9322 34.9998C45.9322 36.6098 45.5705 37.9048 44.8472 38.8848C44.1472 39.8648 43.2955 40.4948 42.2922 40.7748C42.9222 40.9148 43.5872 41.2181 44.2872 41.6848C44.9872 42.1281 45.5822 42.7814 46.0722 43.6448C46.5855 44.5081 46.8422 45.6281 46.8422 47.0048C46.8422 48.8481 46.5505 50.2831 45.9672 51.3098C45.3838 52.3364 44.5555 53.0714 43.4822 53.5148C42.4088 53.9348 41.1255 54.1448 39.6322 54.1448H29.9722ZM32.7722 39.7948H39.4572C40.5538 39.7948 41.4522 39.3981 42.1522 38.6048C42.8755 37.8114 43.2488 36.7381 43.2722 35.3848C43.3188 33.7281 42.9572 32.5731 42.1872 31.9198C41.4405 31.2431 40.4722 30.9048 39.2822 30.9048H32.7722V39.7948ZM32.7722 51.6598H39.5622C40.4722 51.6598 41.2772 51.5198 41.9772 51.2398C42.6772 50.9364 43.2138 50.4231 43.5872 49.6998C43.9838 48.9531 44.1822 47.9031 44.1822 46.5498C44.1822 45.1031 43.7272 43.9831 42.8172 43.1898C41.9305 42.3964 40.8455 41.9998 39.5622 41.9998H32.7722V51.6598Z" fill="#FF0000"/>
<path d="M60.371 54.3548C58.7144 54.3548 57.256 54.2031 55.996 53.8998C54.7594 53.5731 53.721 52.9664 52.881 52.0798C52.0644 51.1931 51.446 49.8981 51.026 48.1948C50.6294 46.4681 50.431 44.1931 50.431 41.3698C50.431 38.5698 50.641 36.3064 51.061 34.5798C51.481 32.8298 52.111 31.4998 52.951 30.5898C53.791 29.6564 54.8294 29.0264 56.066 28.6998C57.3027 28.3498 58.7377 28.1748 60.371 28.1748C62.051 28.1748 63.5094 28.3498 64.746 28.6998C66.006 29.0264 67.0444 29.6564 67.861 30.5898C68.701 31.4998 69.3194 32.8298 69.716 34.5798C70.1127 36.3064 70.311 38.5698 70.311 41.3698C70.311 44.1931 70.101 46.4681 69.681 48.1948C69.2844 49.8981 68.666 51.1931 67.826 52.0798C67.0094 52.9664 65.971 53.5731 64.711 53.8998C63.4744 54.2031 62.0277 54.3548 60.371 54.3548ZM60.371 51.8698C61.6777 51.8698 62.786 51.7414 63.696 51.4848C64.606 51.2281 65.341 50.7381 65.901 50.0148C66.4844 49.2914 66.9044 48.2414 67.161 46.8648C67.4177 45.4648 67.546 43.6331 67.546 41.3698C67.546 39.0131 67.406 37.1231 67.126 35.6998C66.8694 34.2764 66.4494 33.2031 65.866 32.4798C65.306 31.7564 64.571 31.2781 63.661 31.0448C62.751 30.7881 61.6544 30.6598 60.371 30.6598C59.1577 30.6598 58.096 30.7881 57.186 31.0448C56.2994 31.2781 55.5527 31.7564 54.946 32.4798C54.3627 33.2031 53.9194 34.2764 53.616 35.6998C53.336 37.1231 53.196 39.0131 53.196 41.3698C53.196 43.6331 53.3127 45.4648 53.546 46.8648C53.8027 48.2414 54.211 49.2914 54.771 50.0148C55.331 50.7381 56.066 51.2281 56.976 51.4848C57.9094 51.7414 59.041 51.8698 60.371 51.8698Z" fill="#FF0000"/>
<path d="M84.1902 54.3548C82.2535 54.3548 80.5735 54.1214 79.1502 53.6548C77.7502 53.1648 76.6535 52.3248 75.8602 51.1348C75.0902 49.9448 74.7052 48.2881 74.7052 46.1648V28.3848H77.5052V46.1648C77.5052 47.6348 77.7618 48.7898 78.2752 49.6298C78.8118 50.4464 79.5818 51.0181 80.5852 51.3448C81.5885 51.6714 82.7902 51.8348 84.1902 51.8348C85.5902 51.8348 86.7918 51.6714 87.7952 51.3448C88.7985 51.0181 89.5568 50.4464 90.0702 49.6298C90.6068 48.7898 90.8752 47.6348 90.8752 46.1648V28.3848H93.6752V46.1648C93.6752 48.2881 93.2785 49.9448 92.4852 51.1348C91.7152 52.3248 90.6185 53.1648 89.1952 53.6548C87.7952 54.1214 86.1268 54.3548 84.1902 54.3548Z" fill="#FF0000"/>
<path d="M30.6672 94.1448V68.3848H32.9422L46.3822 89.3498V68.3848H49.1472V94.1448H46.8722L33.4322 73.1798V94.1448H30.6672Z" fill="#FF0000"/>
<path d="M54.5588 94.1448V68.3848H56.8338L70.2738 89.3498V68.3848H73.0388V94.1448H70.7638L57.3238 73.1798V94.1448H54.5588Z" fill="#FF0000"/>
<path d="M83.4204 94.2848C82.8604 94.2848 82.2538 94.2381 81.6004 94.1448C80.9704 94.0514 80.3754 93.8414 79.8154 93.5148C79.2788 93.1881 78.8354 92.6864 78.4854 92.0098C78.1354 91.3331 77.9604 90.4231 77.9604 89.2798V73.5648C77.9604 72.2348 78.2054 71.1964 78.6954 70.4498C79.2088 69.7031 79.8504 69.1781 80.6204 68.8748C81.4138 68.5481 82.2188 68.3848 83.0354 68.3848C85.1821 68.4081 87.1188 68.4548 88.8454 68.5248C90.5954 68.5948 92.2521 68.6531 93.8154 68.6998V70.9398H83.7354C82.8254 70.9398 82.1021 71.1848 81.5654 71.6748C81.0288 72.1648 80.7604 72.9464 80.7604 74.0198V80.1098L92.2754 80.2848V82.4198L80.7604 82.5948V88.6498C80.7604 89.5131 80.9004 90.1664 81.1804 90.6098C81.4838 91.0531 81.8688 91.3448 82.3354 91.4848C82.8254 91.6248 83.3388 91.6948 83.8754 91.6948H93.8154V93.9348C92.1821 94.0281 90.4671 94.0981 88.6704 94.1448C86.8738 94.2148 85.1238 94.2614 83.4204 94.2848Z" fill="#FF0000"/>
</svg>
