<svg xmlns="http://www.w3.org/2000/svg" xmlns:xlink="http://www.w3.org/1999/xlink" version="1.1" x="0px" y="0px" fill="#B10000" viewBox="0 0 64 80" enable-background="new 0 0 64 64" xml:space="preserve"><g><path d="M48.99-0.004H14.006c-0.553,0-1,0.447-1,1v9c0,0.553,0.447,1,1,1v51.99c0,0.553,0.447,1,1,1s1-0.447,1-1v-51.99h1v51.99   c0,0.553,0.447,1,1,1s1-0.447,1-1v-51.99h0.998v51.99c0,0.553,0.447,1,1,1s1-0.447,1-1v-51.99h1v52.008c0,0.553,0.447,1,1,1   s1-0.447,1-1V10.996h0.998v51.99c0,0.553,0.447,1,1,1s1-0.447,1-1v-51.99h1v52.008c0,0.553,0.447,1,1,1s1-0.447,1-1V10.996H32   v52.008c0,0.553,0.447,1,1,1s1-0.447,1-1V10.996h1v52.008c0,0.553,0.447,1,1,1s1-0.447,1-1V10.996h0.998v51.99c0,0.553,0.447,1,1,1   s1-0.447,1-1v-51.99h1v51.99c0,0.553,0.447,1,1,1s1-0.447,1-1v-51.99h0.998v51.99c0,0.553,0.447,1,1,1s1-0.447,1-1v-51.99h1v51.999   c0,0.553,0.447,1,1,1s1-0.447,1-1v-52c0.55-0.004,0.994-0.448,0.994-0.999v-9C49.99,0.443,49.543-0.004,48.99-0.004z M15.006,4.996   h4v1h-4V4.996z M47.99,8.996H15.006v-1H47.99V8.996z M21.006,5.996v-1h6v1H21.006z M29.006,5.996v-1h5.002v1H29.006z M36.008,5.996   v-1h6v1H36.008z M47.99,5.996h-3.982v-1h3.982V5.996z M47.99,2.996H15.006v-1H47.99V2.996z"/></g></svg>