<svg xmlns="http://www.w3.org/2000/svg" xmlns:xlink="http://www.w3.org/1999/xlink" version="1.1" x="0px" y="0px" viewBox="0 0 70 87.5" fill="#B10000" style="enable-background:new 0 0 70 70;" xml:space="preserve"><style type="text/css">
	.st0{fill:none;stroke:#2A3D4F;stroke-width:2;stroke-linecap:round;stroke-linejoin:round;stroke-miterlimit:10;}
	.st1{fill:none;stroke:#000000;stroke-width:2;stroke-linecap:round;stroke-linejoin:round;stroke-miterlimit:10;}
</style><g><g><path d="M25.5629883,33.2070313c-3.9775391,0-7.2133789-3.230957-7.2133789-7.2021484    c0-3.965332,3.2358398-7.190918,7.2133789-7.190918c3.9589844,0,7.1796875,3.2255859,7.1796875,7.190918    C32.7426758,29.9760742,29.5219727,33.2070313,25.5629883,33.2070313z M25.5629883,18.8237305    c-3.972168,0-7.2036133,3.2216797-7.2036133,7.1811523c0,3.9658203,3.2314453,7.1923828,7.2036133,7.1923828    c3.9536133,0,7.1699219-3.2265625,7.1699219-7.1923828C32.7329102,22.0454102,29.5166016,18.8237305,25.5629883,18.8237305z"/></g><g><g><path d="M25.5629883,34.2021484c-4.5263672,0-8.2084961-3.6772461-8.2084961-8.1972656     c0-4.5136719,3.6821289-8.1860352,8.2084961-8.1860352c4.5078125,0,8.1748047,3.6723633,8.1748047,8.1860352     C33.737793,30.5249023,30.0708008,34.2021484,25.5629883,34.2021484z M25.5629883,19.8188477     c-3.4233398,0-6.2084961,2.7749023-6.2084961,6.1860352c0,3.4169922,2.7851563,6.1972656,6.2084961,6.1972656     c3.4047852,0,6.1748047-2.7802734,6.1748047-6.1972656C31.737793,22.59375,28.9677734,19.8188477,25.5629883,19.8188477z"/></g><g><path d="M25.5517578,41.5566406c-1.2514648,0-2.4702148-0.1459961-3.6220703-0.434082     c-0.1494141-0.0288086-0.3320313-0.0800781-0.5151367-0.1323242c-0.3457031-0.0888672-0.7045898-0.2075195-1.0634766-0.3271484     c-0.0541992-0.0180664-0.105957-0.0405273-0.1547852-0.0668945C14.0913086,38.3706055,10,32.5258789,10,26.0048828     c0-8.5688477,6.9765625-15.5400391,15.5517578-15.5400391c0.0366211,0,0.0732422,0.0019531,0.1098633,0.0058594     l3.2451172,0.3588867l26.6484375,5.5507813c0.5019531,0.1044922,0.8432617,0.5717773,0.7905273,1.081543     c-0.0522461,0.5097656-0.4819336,0.8974609-0.9946289,0.8974609c-1.0800781,0-2.6489258,2.9829102-2.6489258,7.6567383     s1.5688477,7.6567383,2.6489258,7.6567383c0.5126953,0,0.9418945,0.387207,0.9946289,0.8974609     c0.0527344,0.5097656-0.2885742,0.9765625-0.7900391,1.081543L28.9575195,41.184082     c-0.890625,0.2011719-1.8427734,0.3261719-2.7734375,0.3608398     C25.9814453,41.5561523,25.7729492,41.5566406,25.5517578,41.5566406z M21.1186523,38.8105469     c0.2700195,0.0898438,0.5415039,0.1777344,0.8208008,0.25c0.15625,0.0444336,0.2880859,0.0830078,0.4291992,0.1113281     c1.0546875,0.2626953,2.1337891,0.3549805,3.230957,0.3847656c0.1660156,0,0.324707-0.0004883,0.4916992-0.0097656     c0.8276367-0.0307617,1.6582031-0.1401367,2.4873047-0.3256836l0.5400391-0.0893555l23.6679688-4.9448242     c-1.3662109-1.8251953-2.0844727-5.0629883-2.0844727-8.1708984c0-3.1074219,0.7177734-6.3447266,2.0839844-8.1699219     l-24.1933594-5.043457l-3.0942383-0.3378906C18.050293,12.4936523,12,18.5566406,12,26.0048828     c0,5.7241211,3.6171875,10.8500977,9.0009766,12.7553711C21.0415039,38.7749023,21.0810547,38.7915039,21.1186523,38.8105469z      M25.5629883,34.2021484c-4.5263672,0-8.2084961-3.6772461-8.2084961-8.1972656     c0-4.5136719,3.6821289-8.1860352,8.2084961-8.1860352c4.5078125,0,8.1748047,3.6723633,8.1748047,8.1860352     C33.737793,30.5249023,30.0708008,34.2021484,25.5629883,34.2021484z M25.5629883,19.8188477     c-3.4233398,0-6.2084961,2.7749023-6.2084961,6.1860352c0,3.4169922,2.7851563,6.1972656,6.2084961,6.1972656     c3.4047852,0,6.1748047-2.7802734,6.1748047-6.1972656C31.737793,22.59375,28.9677734,19.8188477,25.5629883,19.8188477z"/></g><g><path d="M25.5629883,34.2021484c-4.5263672,0-8.2084961-3.6772461-8.2084961-8.1972656     c0-4.5136719,3.6821289-8.1860352,8.2084961-8.1860352c4.5078125,0,8.1748047,3.6723633,8.1748047,8.1860352     C33.737793,30.5249023,30.0708008,34.2021484,25.5629883,34.2021484z M25.5629883,19.8188477     c-3.4233398,0-6.2084961,2.7749023-6.2084961,6.1860352c0,3.4169922,2.7851563,6.1972656,6.2084961,6.1972656     c3.4047852,0,6.1748047-2.7802734,6.1748047-6.1972656C31.737793,22.59375,28.9677734,19.8188477,25.5629883,19.8188477z"/></g></g><g><path d="M55.3510742,35.6728516c-3.0195313,0-4.6489258-4.9755859-4.6489258-9.6567383s1.6293945-9.6567383,4.6489258-9.6567383    S60,21.3349609,60,26.0161133S58.3706055,35.6728516,55.3510742,35.6728516z M55.3510742,18.359375    c-1.0800781,0-2.6489258,2.9829102-2.6489258,7.6567383s1.5688477,7.6567383,2.6489258,7.6567383S58,30.6899414,58,26.0161133    S56.4311523,18.359375,55.3510742,18.359375z"/></g><g><path d="M43.8432617,19.9985352c-0.0629883,0-0.1269531-0.0058594-0.1914063-0.0180664l-8.4609375-1.6391602    c-0.5419922-0.1054688-0.8964844-0.6298828-0.7915039-1.1723633c0.1054688-0.5415039,0.6269531-0.8925781,1.1723633-0.7915039    l8.4609375,1.6391602c0.5419922,0.1054688,0.8964844,0.6298828,0.7915039,1.1723633    C44.7314453,19.6665039,44.3125,19.9985352,43.8432617,19.9985352z"/></g><g><path d="M25.3383789,55.3110352h-4.0644531c-0.3920898,0-0.7480469-0.2290039-0.9101563-0.5859375    c-0.9345703-2.0556641-1.4707031-5.1738281-1.4707031-8.5546875c0-2.4746094,0.2802734-4.7988281,0.8105469-6.7216797    c0.0727539-0.2646484,0.2509766-0.487793,0.4931641-0.6166992c0.2426758-0.1293945,0.5268555-0.152832,0.7871094-0.0664063    c0.3149414,0.1049805,0.6298828,0.2109375,0.9555664,0.2949219c0.15625,0.0444336,0.2880859,0.0830078,0.4291992,0.1113281    c1.0546875,0.2626953,2.1337891,0.3549805,3.230957,0.3847656c0.1660156,0,0.324707-0.0004883,0.4916992-0.0097656    c0.496582-0.0302734,0.9243164,0.3027344,1.0317383,0.7802734c0.3901367,1.7441406,0.5966797,3.7651367,0.5966797,5.8432617    c0,3.3803711-0.5361328,6.4985352-1.4711914,8.5546875C26.0864258,55.0820313,25.7304688,55.3110352,25.3383789,55.3110352z     M21.9443359,53.3110352h2.7241211c0.6630859-1.7915039,1.0512695-4.3974609,1.0512695-7.140625    c0-1.6235352-0.1337891-3.2016602-0.3891602-4.6152344c-1.1738281-0.0161133-2.3168945-0.1616211-3.4008789-0.4326172    c-0.1494141-0.0288086-0.3320313-0.0800781-0.5151367-0.1323242c-0.0083008-0.0019531-0.0166016-0.0043945-0.0249023-0.0063477    c-0.3222656,1.5385742-0.496582,3.340332-0.496582,5.1865234C20.8930664,48.9140625,21.28125,51.5200195,21.9443359,53.3110352z"/></g><g><path d="M30.1591797,59.5351563c-0.409668,0-0.8208008-0.0366211-1.2329102-0.109375    c-3.8876953-0.6865234-6.3549805-4.4106445-6.4580078-4.5688477c-0.3012695-0.4624023-0.1708984-1.0820313,0.2919922-1.3837891    c0.4633789-0.3007813,1.081543-0.1704102,1.3823242,0.2900391l0,0c0.0209961,0.0317383,2.112793,3.1660156,5.1420898,3.6948242    c1.5224609,0.2666016,3.0708008-0.1811523,4.6005859-1.3286133c4.6210938-3.465332,7.9267578-3.1479492,9.4858398-2.6508789    c1.3178711,0.4204102,2.3540039,1.2695313,2.6401367,2.1630859c0.1679688,0.5258789-0.1220703,1.0888672-0.6479492,1.2573242    c-0.527832,0.1665039-1.0888672-0.1225586-1.2573242-0.6479492c-0.0629883-0.1469727-0.550293-0.6586914-1.5273438-0.9213867    c-1.1811523-0.3164063-3.7250977-0.4257813-7.4931641,2.3994141    C33.4838867,58.9301758,31.8320313,59.5351563,30.1591797,59.5351563z"/></g></g></svg>