<svg xmlns="http://www.w3.org/2000/svg" xmlns:xlink="http://www.w3.org/1999/xlink" version="1.1" x="0px" y="0px" fill="#B10000" viewBox="0 0 64 80" style="enable-background:new 0 0 64 64;" xml:space="preserve"><g><path d="M47,1H28c-6.888,0-11,3.364-11,9l0,0.895l0.889,0.1C21.726,11.422,26,12.762,26,14v1.278c-0.595,0.347-1,0.985-1,1.722v4   c0,0.293,0.067,0.569,0.181,0.82c-0.749,0.651-1.572,1.814-2.146,3.917l-0.37,1.356c-2.488,9.138-2.637,9.685-5.897,14.462   c-0.478,0.699-0.769,1.214-0.766,2.521l1.002,13.027C17.359,60.466,20.539,63,24.401,63h15.197c3.863,0,7.042-2.534,7.398-5.923   L48,44c0-1.23-0.291-1.745-0.768-2.444c-3.261-4.777-3.41-5.324-5.897-14.462l-0.37-1.356c-0.573-2.103-1.396-3.266-2.146-3.917   C38.933,21.569,39,21.293,39,21v-4c0-0.721-0.387-1.349-0.961-1.701c0.035-0.45,0.092-0.88,0.189-1.271   c1.848,0.15,2.826,2.051,3.975,4.719C43.144,20.935,44.032,23,46,23h2v-1c0-1.808-0.143-9.316-2.4-13H47c1.654,0,3-1.346,3-3V4   C50,2.346,48.654,1,47,1z M28,3h14v4.027L31,7c-2.764,0-6.087,0.834-7.583,3.079c-1.562-0.494-3.204-0.791-4.372-0.955   C19.455,5.219,22.667,3,28,3z M25.343,10.831C26.379,9.716,28.515,9,31,9h8.253c-1.65,1.279-2.945,3.229-3.2,6H28v-1   C28,12.602,26.866,11.577,25.343,10.831z M35,21v-4h2l0.001,4H35z M33,53h-2v-7.406c0.645,0.065,1.312,0.096,2,0.083V53z    M31,43.578V23h2v20.668C32.315,43.683,31.647,43.651,31,43.578z M27,21v-4h2v4H27z M33,17v4h-2v-4H33z M24.595,27.619l0.37-1.356   C25.796,23.216,27.049,23,27.012,23H29v20.251c-0.804-0.172-1.57-0.371-2.288-0.56C25.304,42.32,24.088,42,23,42   c-2.383,0-3.705,0.615-4.986,1.678c0.031-0.425,0.136-0.6,0.406-0.995C21.87,37.629,22.076,36.873,24.595,27.619z M46.003,43.923   l-0.998,12.973C44.725,59.562,42.01,61,39.599,61H24.401c-2.412,0-5.126-1.438-5.404-4.077l-0.824-10.678   C19.805,44.63,20.633,44,23,44c0.83,0,1.929,0.29,3.203,0.625c0.844,0.223,1.783,0.469,2.797,0.668V55h4c0,2.206,1.794,4,4,4   s4-1.794,4-4s-1.794-4-4-4c-0.732,0-1.409,0.212-2,0.556v-6.048c0.755-0.117,1.528-0.297,2.316-0.56   c3.703-1.234,5.657-3.199,6.663-4.686c0.448,0.716,0.969,1.495,1.601,2.42C45.911,43.168,46,43.298,46.003,43.923z M35,55   c0-1.103,0.897-2,2-2s2,0.897,2,2s-0.897,2-2,2S35,56.103,35,55z M39.035,26.263l0.37,1.356c1.602,5.886,2.271,8.333,3.432,10.636   c-0.472,1.033-1.967,3.401-6.153,4.797c-0.571,0.19-1.13,0.318-1.684,0.419V23h1.946C37.08,23.03,38.246,23.371,39.035,26.263z    M44.04,17.957c-1.019-2.367-2.264-5.245-4.988-5.84c1.078-1.674,2.787-2.513,4.216-2.875c1.725,1.381,2.602,7.292,2.719,11.758   C45.339,20.977,44.619,19.304,44.04,17.957z M48,6c0,0.552-0.449,1-1,1h-2c-0.317,0-0.655,0.028-1,0.07V3h3c0.551,0,1,0.448,1,1V6z   "/><path d="M41,45c-1.654,0-3,1.346-3,3s1.346,3,3,3s3-1.346,3-3S42.654,45,41,45z M41,49c-0.551,0-1-0.448-1-1s0.449-1,1-1   s1,0.448,1,1S41.551,49,41,49z"/><path d="M23,47c-1.654,0-3,1.346-3,3s1.346,3,3,3s3-1.346,3-3S24.654,47,23,47z M23,51c-0.551,0-1-0.448-1-1s0.449-1,1-1   s1,0.448,1,1S23.551,51,23,51z"/></g></svg>