<svg width="30" height="20" viewBox="0 0 30 20" fill="none" xmlns="http://www.w3.org/2000/svg">
<g clip-path="url(#clip0_19_43)">
<g filter="url(#filter0_d_19_43)">
<path d="M28.175 5.34992C28.0265 4.95443 27.7241 4.59206 27.2983 4.29942C26.8725 4.00679 26.3384 3.79424 25.75 3.68325C23.6 3.33325 15 3.33325 15 3.33325C15 3.33325 6.39998 3.33325 4.24998 3.71659C3.66154 3.82757 3.12745 4.04012 2.70167 4.33276C2.27588 4.62539 1.97347 4.98776 1.82498 5.38325C1.4315 6.83788 1.23903 8.31351 1.24998 9.79158C1.23596 11.2808 1.42844 12.7677 1.82498 14.2333C1.98868 14.6165 2.29787 14.965 2.72266 15.2453C3.14746 15.5256 3.67351 15.7281 4.24998 15.8333C6.39998 16.2166 15 16.2166 15 16.2166C15 16.2166 23.6 16.2166 25.75 15.8333C26.3384 15.7223 26.8725 15.5097 27.2983 15.2171C27.7241 14.9244 28.0265 14.5621 28.175 14.1666C28.5654 12.7229 28.7579 11.2585 28.75 9.79158C28.764 8.30238 28.5715 6.8155 28.175 5.34992Z" stroke="white" stroke-width="2" stroke-linecap="round" stroke-linejoin="round" shape-rendering="crispEdges"/>
</g>
<path d="M12.1875 12.5167L19.375 9.79165L12.1875 7.06665V12.5167Z" stroke="white" stroke-width="2" stroke-linecap="round" stroke-linejoin="round"/>
</g>
<defs>
<filter id="filter0_d_19_43" x="-4.75073" y="-2.66675" width="39.5015" height="24.8833" filterUnits="userSpaceOnUse" color-interpolation-filters="sRGB">
<feFlood flood-opacity="0" result="BackgroundImageFix"/>
<feColorMatrix in="SourceAlpha" type="matrix" values="0 0 0 0 0 0 0 0 0 0 0 0 0 0 0 0 0 0 127 0" result="hardAlpha"/>
<feOffset/>
<feGaussianBlur stdDeviation="2.5"/>
<feComposite in2="hardAlpha" operator="out"/>
<feColorMatrix type="matrix" values="0 0 0 0 1 0 0 0 0 1 0 0 0 0 1 0 0 0 0.25 0"/>
<feBlend mode="normal" in2="BackgroundImageFix" result="effect1_dropShadow_19_43"/>
<feBlend mode="normal" in="SourceGraphic" in2="effect1_dropShadow_19_43" result="shape"/>
</filter>
<clipPath id="clip0_19_43">
<rect width="30" height="20" fill="white"/>
</clipPath>
</defs>
</svg>
